<svg width="45" height="46" viewBox="0 0 45 46" fill="none" xmlns="http://www.w3.org/2000/svg">
<path d="M15.0514 36.4801C15.0514 36.6637 14.8427 36.8105 14.5796 36.8105C14.2802 36.8381 14.0716 36.6912 14.0716 36.4801C14.0716 36.2965 14.2802 36.1496 14.5433 36.1496C14.8155 36.1221 15.0514 36.2689 15.0514 36.4801ZM12.2298 36.067C12.1663 36.2506 12.3478 36.4617 12.62 36.5168C12.8558 36.6086 13.128 36.5168 13.1825 36.3332C13.2369 36.1496 13.0645 35.9385 12.7923 35.8559C12.5565 35.7916 12.2933 35.8834 12.2298 36.067ZM16.2399 35.9109C15.9768 35.9752 15.7954 36.1496 15.8226 36.3607C15.8498 36.5443 16.0857 36.6637 16.3579 36.5994C16.621 36.5352 16.8024 36.3607 16.7752 36.1772C16.748 36.0027 16.503 35.8834 16.2399 35.9109ZM22.2097 0.734375C9.62601 0.734375 0 10.4006 0 23.1328C0 33.3131 6.33266 42.0246 15.378 45.0906C16.5393 45.3018 16.9476 44.5766 16.9476 43.9799C16.9476 43.4107 16.9204 40.2713 16.9204 38.3436C16.9204 38.3436 10.5696 39.7205 9.23589 35.608C9.23589 35.608 8.20161 32.9367 6.71371 32.2482C6.71371 32.2482 4.63609 30.807 6.85887 30.8346C6.85887 30.8346 9.11794 31.0182 10.3609 33.2029C12.3478 36.7463 15.6774 35.7273 16.9748 35.1215C17.1835 33.6527 17.7732 32.6338 18.4264 32.0279C13.3548 31.4588 8.2379 30.7152 8.2379 21.8844C8.2379 19.36 8.92742 18.0932 10.379 16.4775C10.1431 15.8809 9.37198 13.4207 10.6149 10.2445C12.5111 9.64785 16.875 12.723 16.875 12.723C18.6895 12.209 20.6401 11.9428 22.5726 11.9428C24.505 11.9428 26.4556 12.209 28.2702 12.723C28.2702 12.723 32.6341 9.63867 34.5302 10.2445C35.7732 13.4299 35.002 15.8809 34.7661 16.4775C36.2177 18.1023 37.1069 19.3691 37.1069 21.8844C37.1069 30.7428 31.7631 31.4496 26.6915 32.0279C27.5262 32.7531 28.2339 34.1301 28.2339 36.2873C28.2339 39.3809 28.2067 43.2088 28.2067 43.9615C28.2067 44.5582 28.624 45.2834 29.7762 45.0723C38.8488 42.0246 45 33.3131 45 23.1328C45 10.4006 34.7933 0.734375 22.2097 0.734375ZM8.81855 32.3951C8.7006 32.4869 8.72782 32.698 8.88206 32.8725C9.02722 33.0193 9.23589 33.0836 9.35383 32.9643C9.47177 32.8725 9.44456 32.6613 9.29032 32.4869C9.14516 32.34 8.93649 32.2758 8.81855 32.3951ZM7.83871 31.6516C7.7752 31.7709 7.86593 31.9178 8.04738 32.0096C8.19254 32.1014 8.37399 32.0738 8.4375 31.9453C8.50101 31.826 8.41028 31.6791 8.22883 31.5873C8.04738 31.5322 7.90222 31.5598 7.83871 31.6516ZM10.7782 34.9195C10.6331 35.0389 10.6875 35.3143 10.8962 35.4887C11.1048 35.6998 11.3679 35.7273 11.4859 35.5805C11.6038 35.4611 11.5494 35.1857 11.3679 35.0113C11.1683 34.8002 10.8962 34.7727 10.7782 34.9195ZM9.74395 33.5701C9.59879 33.6619 9.59879 33.9006 9.74395 34.1117C9.88911 34.3229 10.1341 34.4146 10.252 34.3228C10.3972 34.2035 10.3972 33.9648 10.252 33.7537C10.125 33.5426 9.88911 33.4508 9.74395 33.5701Z" fill="white"/>
</svg>
