<svg width="55" height="45" viewBox="0 0 55 45" fill="none" xmlns="http://www.w3.org/2000/svg">
<path d="M49.3464 11.2976C49.3813 11.7862 49.3813 12.2748 49.3813 12.7634C49.3813 27.6649 38.0394 44.835 17.3096 44.835C10.9232 44.835 4.9905 42.9853 0 39.7748C0.907393 39.8795 1.77977 39.9144 2.72207 39.9144C7.99165 39.9144 12.8426 38.1346 16.7163 35.0984C11.7608 34.9937 7.60783 31.7482 6.17697 27.2811C6.875 27.3858 7.57292 27.4556 8.30586 27.4556C9.31788 27.4556 10.33 27.3159 11.2722 27.0718C6.10726 26.0247 2.23341 21.488 2.23341 16.0089V15.8694C3.73398 16.7069 5.47905 17.2304 7.32854 17.3001C4.29236 15.276 2.30323 11.8211 2.30323 7.91243C2.30323 5.81856 2.8615 3.89915 3.83872 2.22401C9.3876 9.0641 17.7284 13.531 27.0811 14.0197C26.9066 13.1821 26.8019 12.3097 26.8019 11.4373C26.8019 5.22527 31.8273 0.165054 38.0741 0.165054C41.3196 0.165054 44.251 1.52609 46.3101 3.72469C48.8576 3.23614 51.3005 2.29383 53.4643 1.00262C52.6266 3.62006 50.8469 5.81867 48.5087 7.21451C50.7771 6.97034 52.9757 6.34203 54.9998 5.46965C53.4645 7.70306 51.545 9.69219 49.3464 11.2976Z" fill="white"/>
</svg>
