<svg width="1284" height="435" viewBox="0 0 1284 435" fill="none" xmlns="http://www.w3.org/2000/svg">
<path d="M238.091 334.339L238.113 334.32L238.095 334.321L238.091 334.339Z" stroke="#00BCE7" stroke-width="10"/>
<path d="M1267.33 119.128C1267.74 118.44 1267.61 117.851 1266.94 117.328C1266.37 116.864 1265.74 116.501 1265.07 116.249C1264.37 115.966 1263.64 115.773 1262.89 115.674L1251.19 116.182C1250.11 116.229 1248.89 116.342 1247.53 116.509C1246.16 116.675 1244.2 116.93 1241.66 117.257L1238.3 117.403C1237.91 117.436 1237.51 117.509 1237.13 117.622C1236.64 117.76 1235.81 117.957 1234.63 118.224C1233.56 118.483 1232.48 118.641 1231.4 118.698C1230.43 118.74 1222.75 120.191 1221.28 120.461C1219.81 120.73 1218.49 121.029 1217.31 121.304C1216.13 121.578 1214.86 121.857 1213.49 122.14C1212.12 122.423 1209.96 122.848 1207.03 123.415C1206.23 123.674 1196.35 125.699 1193.81 126.138C1191.27 126.577 1188.62 127.083 1185.87 127.64C1184.22 128.095 1182.56 128.392 1180.88 128.528C1179.8 128.567 1178.72 128.725 1177.66 129.001C1176.66 129.267 1175.55 129.539 1174.28 129.818C1172.55 130.231 1170.83 130.748 1169.13 131.365C1168.16 131.629 1167.18 131.783 1166.19 131.825C1165.19 131.88 1164.19 132.151 1163.25 132.624C1161.08 133.378 1158.93 134.025 1156.78 134.563C1154.61 135.104 1140.75 136.473 1139.78 136.29C1138.01 137.261 1132.68 143.878 1131.08 145.268C1129.9 147.522 1129.33 150.083 1129.43 152.615C1129.57 155.041 1142.66 172.882 1143.78 174.818C1146.69 176.112 1149.76 176.925 1152.93 177.232C1154.19 177.068 1167.33 167.89 1170.84 167.854C1173.89 167.895 1176.97 167.369 1179.94 166.298C1176.82 173.931 1173.39 182.515 1169.65 192.048C1165.9 201.582 1162.15 211.337 1158.39 221.313C1154.63 231.293 1151.12 241.206 1147.86 251.051C1144.59 260.895 1141.88 270.054 1139.72 278.526C1138.01 284.337 1136.2 290.479 1134.28 296.953C1132.45 303.112 1130.92 309.363 1129.72 315.676C1129.41 317.031 1129.03 318.372 1128.6 319.694C1128.32 320.454 1128.1 321.239 1127.95 322.038C1127.83 322.644 1127.82 323.262 1127.9 323.859C1127.98 324.405 1131.04 326.974 1131.93 326.496C1132.82 326.017 1149.79 319.269 1150.38 318.915C1150.98 318.561 1155.37 316.218 1156.49 314.18C1157.69 311.968 1158.73 309.655 1159.59 307.266C1160.53 304.692 1161.42 302.062 1162.27 299.376C1163.24 296.929 1164.53 294.641 1166.09 292.594C1166.19 292.59 1170.55 282.037 1172.93 276.428C1175.31 270.82 1177.44 265.43 1179.32 260.282C1180.05 257.561 1180.9 254.874 1181.86 252.233C1182.7 249.993 1183.63 247.526 1184.68 244.833C1185.1 243.715 1185.57 242.428 1186.09 240.972C1186.62 239.516 1187.09 238.229 1187.5 237.111C1188.34 234.876 1189.38 232.13 1190.63 228.873L1194.39 219.115C1195.63 215.868 1196.83 212.674 1197.98 209.533C1199.13 206.397 1206.73 192.945 1206.73 192.945C1207.33 191.418 1208.05 189.947 1208.88 188.551C1209.53 187.358 1210.1 186.118 1210.59 184.841C1211.07 183.562 1211.64 182.321 1212.29 181.128C1216.19 172.781 1219.73 164.236 1222.87 155.529C1223.83 155.06 1224.76 154.521 1225.67 153.916C1226.56 153.334 1246.15 147.24 1246.73 147.215C1247.82 147.151 1248.91 146.938 1249.96 146.58C1251.14 146.196 1255.88 145.389 1257.16 145.108C1258.32 144.902 1259.41 144.273 1260.27 143.319L1261.63 141.771C1262.1 141.242 1262.47 140.602 1262.7 139.903C1263.34 138.16 1263.84 136.361 1264.18 134.532C1264.87 134.218 1267.33 119.128 1267.33 119.128Z" stroke="#00BCE7" stroke-width="10"/>
<path d="M396.351 288.062C396.327 287.863 396.315 287.661 396.315 287.458C396.303 286.148 396.071 283.343 395.621 279.041C395.13 274.379 394.606 269.085 394.047 263.157C393.489 257.23 392.875 251.424 392.207 245.739C391.539 240.049 391.043 235.611 390.719 232.425C390.389 231.756 390.198 231.004 390.16 230.221C389.983 228.924 389.863 227.614 389.803 226.296C389.733 224.925 389.662 223.727 389.589 222.702C389.51 221.679 389.478 221.054 389.484 220.822C389.523 220.355 389.483 219.89 389.366 219.452C389.255 219.132 389.212 218.783 389.24 218.431L389.249 218.085C389.249 218.085 412.994 204.12 433.717 188.836L444.954 180.35L445.548 179.629C449.475 176.372 458.278 167.566 458.278 167.566C460.747 165.061 462.648 161.919 463.799 158.443C464.066 157.5 464.264 156.538 464.394 155.568C467.485 139.493 463.811 133.396 463.811 133.396C463.758 133.329 463.719 133.248 463.695 133.161C463.671 133.073 463.663 132.979 463.672 132.886C459.679 125.627 453.325 120.514 445.867 118.559C437.659 116.134 429.152 114.889 420.537 114.851L415.692 115.06C406.196 115.469 396.848 116.156 387.647 117.121C379.135 117.961 370.649 119.531 362.263 121.819C360.909 122.318 359.533 122.72 358.144 123.021C356.821 123.313 355.451 123.604 354.033 123.893C350.579 124.728 346.978 125.569 343.229 126.415C339.96 127.1 336.74 128.159 333.618 129.573C331.021 130.695 328.37 131.611 325.684 132.317C323.447 132.877 321.618 133.412 320.197 133.923C319.119 134.447 317.988 134.785 316.843 134.925C315.408 135.151 313.983 135.499 312.581 135.967C312.284 136.215 311.978 136.447 311.662 136.66C312.123 135.683 312.646 134.652 313.246 133.539L316.26 127.868C316.366 127.673 316.46 127.47 316.543 127.263C317.415 125.045 318.141 122.767 318.713 120.446C319.348 117.936 319.88 115.886 320.31 114.297C320.362 114.111 320.404 113.923 320.439 113.733C320.855 111.434 320.998 109.103 320.865 106.802C320.845 104.96 320.365 103.197 319.479 101.715C317.26 97.3331 314.204 93.6046 310.518 90.7813C306.659 87.7461 297.312 80.1973 294.899 79.9604C292.294 79.7151 289.668 79.6555 287.035 79.7821C285.551 79.8895 284.071 80.1867 282.625 80.6676C281.288 80.9468 280.043 81.7249 279.094 82.8758C277.919 84.2506 276.491 85.3116 274.928 85.9717C273.474 86.5824 271.997 87.104 270.503 87.5344C269.102 87.9334 267.722 88.451 266.375 89.0824C265.045 89.7169 234.694 124.019 232.605 127.074C230.666 129.911 223.73 139.612 222.701 141.05C222.611 141.176 222.515 141.297 222.414 141.412L219.062 145.25C218.91 145.425 218.769 145.612 218.639 145.808L215.518 150.579C215.42 150.725 215.316 150.866 215.207 151L207.569 160.396C206.555 161.997 205.403 163.485 204.13 164.833C202.889 166.147 191.53 182.931 190.797 184.107C190.101 185.215 182.797 194.928 181.954 196.049C181.897 196.121 181.844 196.196 181.795 196.274L179.988 198.983C179.55 200.141 179.017 201.255 178.395 202.309C177.549 203.835 176.602 205.421 175.554 207.067C171.574 212.957 167.95 218.774 164.682 224.518C161.679 229.18 158.385 233.601 154.829 237.746L155.565 230.959C155.592 230.701 155.64 230.444 155.709 230.193C157.221 224.535 158.59 218.768 159.816 212.894C161.072 206.893 164.065 189.842 164.486 189.365L164.545 186.963C164.972 185.611 165.26 184.216 165.402 182.809C165.445 181.871 165.622 180.937 165.926 180.044C166.148 179.339 166.37 178.599 166.595 177.783C166.82 176.966 167.042 176.219 167.264 175.526C167.491 174.605 167.716 173.794 167.937 173.093C168.031 172.363 168.258 171.652 168.602 171.008C169.034 170.076 172.774 155.218 173.124 153.487C173.435 151.908 173.714 150.093 173.959 148.043C174.007 147.652 174.1 147.267 174.235 146.898C175.218 144.211 175.933 141.425 176.366 138.595C176.822 135.22 177.007 131.825 176.918 128.452C176.752 127.908 176.664 127.332 176.658 126.745C176.503 125.229 168.642 113.471 164.122 109.945C163.763 109.672 163.36 109.477 162.932 109.368C162.052 109.128 160.473 108.575 160.16 108.588C158.978 108.353 157.824 108.001 156.709 107.534C153.867 105.942 150.918 104.579 147.884 103.456C145.61 102.989 143.248 103.032 140.929 103.584C140.315 103.61 139.21 103.605 137.598 103.556C135.986 103.507 134.271 103.467 132.458 103.437C130.645 103.406 128.929 103.357 127.315 103.31C125.7 103.264 124.49 103.265 123.683 103.3C121.128 102.788 118.732 101.662 116.653 99.9957C116.068 99.187 115.302 98.5725 114.427 98.2091C112.404 98.1067 110.358 98.6086 108.492 99.6655C99.0531 104.544 92.1588 117.697 92.1588 117.697C85.795 130.318 79.7095 143.902 73.9022 158.449C68.0948 172.996 62.5834 187.871 57.3679 203.075C52.1529 218.282 47.6196 233.545 42.3334 248.322C32.8912 274.671 22.2377 322.623 18.3657 341.335C17.3241 346.392 16.786 351.528 16.7615 356.646C16.7578 357.627 16.756 358.443 16.7701 358.867C16.8322 360.58 17.2621 361.641 18.0552 362.069C19.7859 362.748 21.6116 363.131 23.4747 363.205C24.8936 363.126 26.3128 362.951 27.7245 362.681C29.3621 362.49 30.991 362.132 32.591 361.612C33.6107 361.225 47.1283 359.098 48.2905 356.994C49.2974 355.242 50.1067 353.364 50.6981 351.406L51.6832 348.273C51.9173 345.64 52.5971 343.049 53.685 340.644C54.7134 338.373 55.9864 336.243 57.4729 334.305C59.0556 330.744 60.4113 327.073 61.5286 323.321C62.0019 321.603 62.6318 319.936 63.4077 318.346C63.5514 318.06 63.666 317.758 63.7489 317.446C64.2544 315.521 66.1746 308.215 66.4648 306.811C66.7568 305.561 66.9402 304.289 67.0123 303.014L67.08 300.268C67.184 295.725 68.3948 291.22 70.5785 287.252C72.6735 283.456 74.3503 279.405 75.5685 275.196C77.074 271.249 78.428 267.475 79.6305 263.875C80.9741 259.938 82.6387 256.132 84.6015 252.508C85.836 250.003 86.9593 247.436 87.9667 244.817C89.1309 241.831 90.5531 238.608 92.2333 235.15C92.2742 235.067 92.3192 234.984 92.3639 234.912C94.0248 231.904 95.5383 228.962 96.9042 226.086C98.2763 223.186 99.5101 220.212 100.6 217.178L100.297 217.191C100.502 217.182 100.711 217.004 100.924 216.649C101.203 216.205 101.517 215.79 101.862 215.408C102.503 214.01 103.512 211.965 104.889 209.274C106.265 206.583 107.799 203.715 109.491 200.672C111.177 197.629 112.967 194.579 114.859 191.521C116.752 188.463 118.325 185.994 119.579 184.115C119.285 188.299 119.233 192.484 119.424 196.64C119.531 202.135 118.763 207.672 117.156 212.988C117.081 213.246 117.028 213.509 116.998 213.776L115.119 229.929L112.88 247.18C111.924 253.172 111.08 258.756 110.349 263.929C109.588 269.71 109.343 275.524 109.619 281.284C109.337 284.558 109.358 287.835 109.68 291.059C109.937 294.108 110.685 297.041 111.888 299.715C112.297 299.698 114.144 306.427 115.914 308.288C118.314 310.318 121.349 311.224 124.439 310.833C124.757 310.824 125.074 310.777 125.387 310.692L127.285 310.184C127.665 310.076 128.034 309.915 128.383 309.703C131.566 307.832 151.574 299.501 153.688 297.915C155.781 296.421 157.508 294.329 158.681 291.868L162.141 286.57C165.697 281.389 169.096 276.498 172.336 271.895C175.458 267.467 191.863 246.075 193.069 244.505C193.12 244.438 193.16 244.383 193.209 244.314C194.026 243.149 194.999 241.652 196.129 239.825C197.281 237.945 198.386 236.067 199.444 234.19C200.498 232.316 205.465 225.185 206.215 223.435C207.099 221.464 208.214 219.626 209.53 217.976L224.798 195.864C224.873 195.754 224.952 195.649 225.036 195.547V195.547C225.701 194.702 226.593 194.132 227.555 193.938C228.516 193.744 229.485 193.939 230.289 194.488C231.093 195.036 231.681 195.903 231.948 196.935C232.215 197.968 232.145 199.098 231.749 200.126C228.117 209.951 224.493 220.03 220.878 230.363C214.255 249.294 208.089 268.259 202.379 287.259C201.711 289.809 201.048 292.124 200.392 294.204C199.727 296.292 199.129 298.325 198.579 300.289C198.03 302.253 197.466 304.401 196.906 306.708C196.346 309.016 193.67 323.263 193.053 327.97C192.436 332.677 191.953 337.677 191.624 342.953C191.397 344.613 191.306 346.284 191.35 347.942C191.448 348.047 191.655 347.871 191.977 347.403C192.167 347.148 192.406 346.945 192.673 346.812C192.94 346.679 193.228 346.621 193.511 346.642C194.158 346.614 194.913 347.837 195.755 350.33C195.889 350.769 196.087 351.177 196.339 351.536C197.109 352.46 198.073 353.148 199.152 353.546C199.233 353.607 199.322 353.653 199.417 353.682C199.506 353.697 199.61 353.716 199.7 353.738C200.554 354.019 201.433 354.213 202.327 354.32C211.543 356.642 231.484 362.126 238.222 330.037C239.424 324.308 240.737 318.57 242.094 312.987L242.315 312.282C243.375 308.856 244.273 305.38 245.006 301.869C245.008 301.75 244.989 301.638 244.988 301.517C247.982 290.029 257.751 257.58 257.751 257.58C258.029 256.554 258.409 255.559 258.881 254.615C258.881 254.615 266.002 233.677 267.167 231.443C268.333 229.209 269.446 226.833 270.522 224.267L273.659 216.77C273.711 216.642 273.76 216.515 273.802 216.386L275.531 211.172C275.644 210.833 275.789 210.508 275.964 210.203L277.915 206.794C279.89 203.095 281.701 199.295 283.34 195.408C284.517 192.536 288.405 182.24 289.066 180.487C289.129 180.317 289.202 180.151 289.282 179.989C290.069 178.434 294.417 169.89 295.888 167.603C296.052 167.36 296.195 167.101 296.316 166.829L297.619 163.729C297.966 162.901 298.509 162.187 299.185 161.674C299.86 161.161 300.639 160.871 301.428 160.837V160.837C302.269 160.8 303.082 161.056 303.758 161.571C306.322 163.472 308.776 165.551 311.105 167.796C311.743 168.764 312.615 169.497 313.625 169.918L315.746 169.826C317.032 169.158 318.267 168.358 319.436 167.438C320.87 166.349 326.805 163.179 326.805 163.179L328.355 161.742C326.209 166.867 323.694 172.693 320.81 179.222C317.927 185.751 315.318 191.349 312.984 196.018C310.005 202.098 307.079 208.285 304.204 214.58C301.327 220.88 286.674 254.617 285.235 259.825C283.796 265.034 282.2 270.304 280.455 275.639C279.149 279.589 278.109 283.064 277.335 286.064C276.562 289.065 275.766 291.831 274.947 294.364C274.178 296.916 273.358 299.468 272.487 302.018C271.615 304.569 270.639 307.355 269.559 310.378L269.517 312.096C269.49 312.629 269.374 313.159 269.175 313.657C268.919 314.497 268.794 315.373 268.807 316.243L269.565 322.389C269.759 322.844 270.364 323.159 271.356 323.341C272.499 323.543 273.657 323.665 274.823 323.706C276.13 323.768 277.392 323.767 278.604 323.715L281.633 323.584C281.707 323.682 281.799 323.761 281.903 323.816C282.007 323.87 282.122 323.899 282.239 323.901L283.451 323.849C283.869 323.774 284.274 323.606 284.644 323.354C285.014 323.102 285.341 322.773 285.605 322.384C286.032 321.67 287.019 322.091 287.438 321.61L288.955 321.544L289.267 321.188C291.35 320.826 293.401 320.16 295.368 319.207L302.415 310.827C302.699 310.491 302.941 310.112 303.131 309.702C304.319 307.15 308.865 297.415 309.229 296.998C309.695 295.657 309.985 294.257 310.088 292.846C310.649 290.723 311.58 288.725 312.826 286.974C313.032 286.661 313.205 286.323 313.341 285.967C314.966 281.781 316.354 278.021 317.505 274.686C318.677 271.288 320.157 268.018 321.919 264.931C322.068 264.665 322.194 264.384 322.293 264.092C323.073 261.682 323.994 259.325 325.05 257.037C325.851 255.38 326.564 253.777 327.188 252.227C327.259 252.054 327.34 251.886 327.43 251.723C328.5 249.785 335.697 236.793 336.977 234.141C337.173 233.739 337.418 233.368 337.706 233.041L339.463 231.028C339.977 230.44 340.444 229.905 340.862 229.423L350.04 226.33C351.035 225.993 352.082 226.081 352.974 226.578C353.867 227.075 354.542 227.945 354.867 229.017L358.519 241.04C358.651 241.474 358.722 241.933 358.731 242.401L358.852 248.55C358.846 248.782 359.06 250.203 359.503 252.806C359.946 255.409 360.428 258.258 360.956 261.321C361.484 264.384 362.023 267.226 362.564 269.829C363.105 272.432 363.373 273.856 363.367 274.081C363.335 274.829 363.367 275.575 363.464 276.307C363.545 276.81 363.583 277.325 363.577 277.843L364.813 289.112C364.794 289.521 364.835 289.925 364.934 290.31C365.031 290.694 365.072 291.097 365.056 291.503C365.128 293.238 365.339 294.951 365.687 296.622C365.961 297.76 366.239 298.778 366.519 299.674C366.783 300.525 369.819 309.5 370.505 311.543C370.574 311.751 370.658 311.951 370.756 312.142L373.485 317.561C374.296 318.695 375.459 319.435 376.763 319.645C378.162 319.93 379.67 320.157 381.284 320.315C382.888 320.709 383.79 320.955 383.989 321.051C384.578 321.193 385.19 321.224 385.801 321.145C385.596 321.154 386.108 321.02 387.326 320.741C388.543 320.461 389.156 320.089 389.167 319.627C389.167 319.627 392.98 309.045 393.369 307.589C393.423 307.404 393.486 307.222 393.557 307.043L396.954 298.364C397.376 297.444 397.509 296.407 397.329 295.434C397.177 294.55 396.517 289.376 396.351 288.062ZM387.665 184.178C381.742 186.957 375.615 189.965 369.285 193.201C362.954 196.438 356.82 199.793 350.88 203.267C351.895 201.742 352.749 200.093 353.42 198.357C354.18 196.495 354.775 195.009 355.201 193.875C355.309 193.594 355.44 193.323 355.593 193.068L357.261 190.295L361.36 183.6C362.805 181.946 363.805 179.869 364.231 177.639C364.795 175.971 365.545 174.379 366.464 172.907C367.629 170.928 368.69 168.878 369.641 166.768C370.618 165.294 371.329 163.628 371.729 161.872C371.899 160.981 371.913 160.072 371.769 159.198C371.673 158.597 371.686 157.972 371.807 157.361C371.927 156.75 372.153 156.164 372.471 155.638C372.789 155.112 373.192 154.656 373.657 154.298C374.122 153.94 374.64 153.687 375.18 153.553C375.307 153.526 375.437 153.495 375.566 153.476C377.285 153.177 379.162 152.753 381.196 152.204L383.523 151.45C383.597 151.423 383.676 151.404 383.754 151.384L390.033 149.765C394.089 148.904 398.295 148.094 402.652 147.334C407.008 146.575 411.108 145.997 414.951 145.601C416.313 145.321 417.684 145.149 419.054 145.084L423.148 144.908C426.655 144.701 430.149 144.894 433.577 145.483C436.486 146.045 437.919 147.241 437.877 149.069C437.843 150.446 435.663 152.943 431.337 156.561L429.479 158.354C424.333 162.47 419.759 165.926 415.756 168.723C410.983 171.964 406.004 174.76 400.872 177.083C399.848 177.591 398.724 178.154 397.501 178.773C396.278 179.391 395.154 179.954 394.13 180.462C393.174 181.372 392.076 182.061 390.903 182.485C389.773 182.885 388.687 183.456 387.675 184.182L387.665 184.178Z" stroke="#00BCE7" stroke-width="10"/>
<path d="M1097.94 109.134C1097.94 109.134 1090.62 104.437 1089.79 104.238L1087.98 103.605C1086.77 103.183 1079.71 99.701 1077.09 98.9933C1074.31 98.2649 1071.45 97.8556 1068.57 97.7711C1065.67 97.6637 1062.77 97.725 1059.86 97.9545C1057.73 98.0319 1055.6 98.5335 1053.57 99.4369C1051.71 100.68 1050.21 101.67 1049.07 102.408C1048.05 103.067 1047.06 103.807 1046.12 104.623C1045.29 105.358 1044.41 106.151 1043.48 107.002C1042.26 108.062 1040.96 108.991 1039.6 109.778L1020.96 123.803L1014.73 129.293C1013.97 130.396 1013.07 131.373 1012.08 132.193C1011.14 133.015 1010.15 133.756 1009.13 134.408C1004.97 138.067 1001.38 141.411 998.368 144.441C995.352 147.471 992.534 150.494 989.914 153.511C987.301 156.531 984.582 159.786 981.758 163.276C978.932 166.769 969.771 178.247 969.335 179.66C968.686 181.599 967.929 183.494 967.069 185.334C964.798 187.498 962.961 190.199 961.699 193.231L959.97 195.853C959.822 195.798 959.667 195.769 959.509 195.766C957.043 195.428 954.533 195.413 952.029 195.722C950.084 196.039 947.579 196.492 944.515 197.08C943.483 197.122 942.376 197.229 941.149 197.39C939.922 197.552 938.7 197.668 937.478 197.718C937.534 195.155 937.638 192.766 937.789 190.55C937.964 188.142 938.272 185.741 938.712 183.359C939.182 180.786 939.545 178.154 939.803 175.464C940.069 172.784 940.228 170.161 940.285 167.596L940.552 155.55C940.652 151.528 940.948 147.502 941.438 143.49C941.438 143.49 941.621 132.838 941.527 132.495C941.428 132.104 941.386 131.692 941.404 131.277C941.247 128.962 941.1 126.296 940.962 123.279C940.902 120.928 940.647 118.602 940.2 116.332C939.718 114.961 939.135 113.645 938.457 112.396C938.21 111.754 937.784 111.233 937.241 110.91C936.698 110.587 936.068 110.48 935.443 110.604C934.021 110.426 928.001 111.254 926.587 110.616L926.289 110.282C924.917 107.778 923.824 106.544 923.01 106.579C922.398 106.586 921.787 106.552 921.182 106.477C920.577 106.405 919.967 106.372 919.354 106.378C915.949 105.756 912.466 105.607 908.98 105.932C907.55 106.111 901.625 107.107 901.625 107.107C900.403 107.207 899.216 107.743 898.232 108.639L895.437 110.848C895.013 111.337 886.979 120.092 885.725 121.891C884.472 123.689 883.409 125.298 882.564 126.736C882.564 126.736 874.268 138.011 872.168 141.115C870.069 144.219 868.165 147.214 866.473 150.072C864.581 152.713 862.686 155.583 860.788 158.68C858.89 161.777 857.095 164.642 855.402 167.275C847.825 178.521 840.391 190.221 833.098 202.376C825.805 214.531 818.775 226.334 812.008 237.786L807.394 239.371C804.105 241.133 800.701 242.557 797.223 243.625C793.732 244.711 790.578 245.527 787.701 246.11C787.293 245.891 765.25 253.664 765.25 253.664C763.202 254.22 761.818 254.624 761.097 254.877C760.376 255.13 759.198 255.528 757.563 256.072C754.07 257.381 750.681 258.742 747.395 260.153C744.109 261.565 740.822 262.92 737.533 264.22C731.986 266.545 726.54 268.862 721.193 271.172C715.846 273.482 710.71 275.555 705.786 277.39C705.63 277.602 705.44 277.778 705.227 277.908C705.014 278.039 704.783 278.12 704.548 278.148L689.432 285.05L683.581 287.382C682.306 288.023 680.948 288.375 679.586 288.419C678.1 287.918 676.681 287.216 675.359 286.327C674.75 285.88 674.671 285.077 675.108 283.892C676.406 280.353 677.603 276.874 678.698 273.456C679.793 270.038 680.987 266.675 682.281 263.365C682.933 261.476 683.689 259.525 684.548 257.515C685.407 255.498 686.368 253.535 687.427 251.637C695.675 249.423 713.8 239.996 713.8 239.996C713.894 239.916 713.964 239.84 714.042 239.762C715.419 239.469 716.629 239.229 717.62 239.032C718.726 238.813 719.4 238.662 719.646 238.577C724.475 237.229 729.242 235.906 733.948 234.606C738.789 233.257 743.561 231.518 748.226 229.4C749.998 228.737 751.795 227.991 753.615 227.163C755.516 226.282 757.284 225.025 758.835 223.455C759.266 222.973 759.583 222.376 759.754 221.726C759.925 221.076 759.944 220.396 759.808 219.756L756.328 212.553L779.755 205.361C779.793 205.4 779.835 205.388 779.873 205.462C779.865 205.418 779.866 205.371 779.876 205.326L779.986 205.291C780.087 205.385 780.147 205.364 780.171 205.233C780.784 205.47 781.305 202.091 781.609 201.687C781.913 201.284 782.365 201.199 782.97 201.433C784.562 201.384 799.41 199.496 799.903 199.702C800.161 199.77 800.436 199.75 800.694 199.646C800.952 199.541 801.183 199.356 801.36 199.112C801.522 198.906 801.642 198.663 801.71 198.401C801.778 198.14 801.791 197.867 801.751 197.606C801.531 195.434 800.995 193.341 800.165 191.412C799.559 190.833 797.805 190.208 797.315 189.657C796.55 189.656 788.784 188.155 787.079 188.175C785.75 187.968 784.445 187.627 783.181 187.157C781.845 186.86 780.256 189.453 778.56 189.756C776.863 190.06 770.66 190.475 769.068 190.701C767.477 190.926 766.123 191.114 765.012 191.263C763.901 191.413 763.221 191.521 762.975 191.583C758.102 192.614 753.292 193.629 748.547 194.625C743.663 195.661 738.83 197.091 734.083 198.905C732.282 199.46 730.457 200.09 728.606 200.797C726.671 201.557 724.85 202.699 723.229 204.17C722.777 204.624 722.431 205.202 722.229 205.842C722.027 206.482 721.974 207.163 722.077 207.812C722.469 208.597 722.973 209.298 723.568 209.887C724.028 210.285 727.019 213.185 727.246 213.595C727.258 213.594 727.289 213.593 727.303 213.593C726.252 214.372 725.095 214.931 723.891 215.242C715.714 216.757 709.503 217.066 702.539 219.21C705.566 212.614 708.883 206.182 712.478 199.941C715.296 195.549 718.476 191.464 721.969 187.747C725.429 183.189 730.92 171.916 731.334 171.665C731.607 170.347 732.241 169.138 733.142 168.221C734.042 167.303 735.161 166.725 736.331 166.573C738.935 166.019 741.507 165.213 744.018 164.166C745.25 163.644 746.38 163.189 747.407 162.803C748.431 162.41 749.564 161.962 750.797 161.44C753.674 160.164 756.548 159.057 759.421 158.12C762.293 157.183 765.365 156.301 768.638 155.473C769.846 154.969 771.081 154.569 772.331 154.277C773.557 153.991 789.275 149.825 790.5 149.541C792.395 149.431 794.288 149.178 796.168 148.785C796.919 148.394 797.692 148.071 798.48 147.817C801.95 147.203 805.15 146.289 808.149 145.498C811.62 144.545 814.855 142.535 817.501 139.689C820.146 136.843 822.102 133.269 823.156 129.355C823.291 127.725 826.254 122.598 826.373 121.895C826.491 121.193 827.584 117.722 827.702 117.126C827.82 116.529 828.412 113.03 828.101 112.922C827.472 112.541 826.915 112.032 826.454 111.418C824.628 111.257 822.843 111.167 821.119 111.113C819.44 111.068 817.752 111.197 816.074 111.498C803.843 112.236 777.967 117.923 767.416 120.806C756.864 123.689 746.066 126.512 735.015 129.288C733.825 127.714 732.54 125.965 731.16 124.041C729.955 122.317 728.552 120.79 726.985 119.498C726.452 118.953 725.845 118.509 725.185 118.178C724.629 117.824 724.009 117.609 723.362 117.546C722.973 117.446 722.564 117.45 722.166 117.557C721.767 117.663 721.389 117.87 721.06 118.162C718.276 120.587 715.616 123.201 713.098 125.988C711.42 128.155 705.184 143.184 702.849 147.698C700.515 152.212 698.165 156.731 695.831 161.243C691.159 169.808 686.491 178.314 681.827 186.764C677.162 195.213 672.699 203.712 668.436 212.262C667.412 213.648 666.602 215.217 666.045 216.896C665.53 218.465 664.934 220.004 664.262 221.503C663.884 221.926 663.565 222.411 663.316 222.939C663.062 223.515 662.842 224.107 662.657 224.711C658.606 233.025 654.749 241.79 651.085 251.004C649.281 255.542 647.55 260.163 645.894 264.868C645.611 263.88 645.322 262.758 645.054 261.366C644.682 259.524 644.409 258.139 644.234 257.213C644.244 256.741 644.212 255.705 644.151 254.078C644.115 252.787 643.99 251.507 643.778 250.251C643.515 247.642 643.009 245.09 642.267 242.637C641.594 240.571 637.646 232.831 637.471 231.669C632.723 224.123 626.631 217.846 619.558 213.212C612.211 208.574 604.543 204.575 596.618 201.248L596.634 200.54C597.327 200.183 598.05 199.916 598.787 199.744C599.812 199.466 610.85 190.471 611.992 189.606C613.133 188.741 622.374 182.727 622.999 182.003L624.564 180.192C627.626 178.685 630.579 176.871 633.387 174.772C636.179 172.682 646.827 162.937 647.88 161.618C649.123 160.091 650.484 158.693 651.942 157.443C651.942 157.443 664.275 147.284 664.696 146.8L665.638 145.715C666.232 145.331 666.802 144.898 667.344 144.421C668.013 143.875 668.598 143.201 669.07 142.431C671.086 139.519 672.566 136.189 673.413 132.66C674.445 127.266 675.127 121.815 675.452 116.354L675.491 114.605C675.507 113.897 675.978 108.538 676.122 106.903C676.265 105.268 676.34 103.877 676.366 102.706C676.417 99.6064 675.689 96.6093 674.269 94.0697C672.786 91.3193 670.937 88.8647 668.781 86.7887C666.521 84.6323 663.923 82.9686 661.105 81.8729C658.417 80.7831 655.619 80.0219 652.758 79.6015C648.46 78.6098 644.087 77.9736 639.671 77.6973C635.196 77.4097 630.922 77.3496 626.848 77.517C623.586 77.6511 619.966 77.9745 615.986 78.487C612.006 78.9995 608.28 79.5604 604.807 80.1699C596.024 81.4629 587.282 83.2179 578.581 85.4349C569.878 87.6598 550.057 95.7383 547.492 96.6547C544.928 97.5711 542.157 98.503 539.177 99.4412C536.198 100.379 533.997 101.113 532.561 101.63L532.869 101.617L527.023 103.602C525.356 105.302 510.058 111.278 510.058 111.278C507.35 112.99 504.432 114.172 501.432 114.77C498.515 115.898 495.806 117.714 493.488 120.097C491.169 122.479 489.296 125.373 487.993 128.581C487.957 130.212 488.244 131.131 488.85 131.335L488.545 131.348L489.392 134.455C489.882 135.179 490.276 135.985 490.56 136.85C491.097 139.349 492.144 141.635 493.619 143.528C495.102 145.444 496.63 147.649 498.205 150.141C498.659 150.647 499.16 151.095 499.7 151.48C500.295 151.916 500.802 152.487 501.192 153.161C501.732 154.002 502.326 154.793 502.969 155.53C503.56 155.833 504.165 156.098 504.784 156.325C505.455 156.56 506.069 156.95 506.589 157.475C507.269 157.857 507.976 158.177 508.705 158.434C509.698 158.725 510.715 158.92 511.746 159.017C512.778 159.55 513.934 159.747 515.092 159.587C515.715 159.565 516.331 159.658 516.916 159.863C514.97 165.06 513.136 169.787 511.413 174.043C509.69 178.3 507.755 182.915 505.609 187.89C501.92 198.047 498.307 207.209 494.77 215.378C491.233 223.547 487.437 231.786 483.384 240.094C478.655 251.222 473.987 262.055 469.38 272.593C464.175 284.82 459.762 297.422 456.177 310.292C456.177 310.292 453.507 318.373 452.716 321.775C451.833 325.775 451.181 329.823 450.766 333.89C451.356 335.24 452.218 336.398 453.286 337.275C454.183 337.934 455.143 338.48 456.151 338.904L450.595 341.575C449.558 342.551 448.727 343.341 448.102 343.943C447.053 344.815 445.905 345.509 444.697 346.002C444.439 346.835 444.06 347.619 443.575 348.319L442.791 349.223C440.77 352.043 439.758 355.596 439.977 359.106C440.197 362.52 440.685 365.887 441.435 369.165C441.663 370.015 441.851 370.882 441.997 371.761C442.147 372.497 442.232 373.252 442.252 374.016C443.686 376.423 445.634 378.358 447.928 379.654C450.221 380.95 452.79 381.567 455.414 381.453C464.729 381.306 529.372 369.742 555.021 355.775L555.329 355.763L555.675 355.421L570.109 347.554L570.476 347.466C570.51 347.408 570.567 347.342 570.61 347.284C574.593 345.112 577.853 343.332 580.489 341.889C580.549 341.861 580.622 341.844 580.678 341.809C580.693 341.791 580.725 341.769 580.74 341.752C587.066 338.29 589.683 336.85 589.683 336.85L589.63 336.834C597.406 333.107 604.918 328.616 612.079 323.416C619.317 318.054 626.165 312 632.543 305.323C632.4 305.854 632.315 306.317 632.137 306.888C631.722 308.215 631.386 309.568 631.132 310.937C630.897 312.163 630.922 313.418 631.203 314.595C631.483 315.748 646.986 328.601 648.3 328.547C650.734 329.042 653.119 329.761 655.43 330.697C657.704 331.78 660.219 332.157 662.735 331.792C665.217 331.491 667.683 330.923 670.099 330.094C672.153 329.082 674.161 328.011 676.123 326.88C678.085 325.749 680.094 324.678 682.149 323.664C683.497 322.947 684.891 322.363 686.314 321.921C687.645 321.52 689.031 321.056 690.472 320.528L698.198 316.375C699.227 315.869 700.205 315.364 701.133 314.859C701.939 314.436 702.717 313.936 703.456 313.365C705.317 312.13 707.122 311.011 708.872 310.007C710.623 309.009 730.335 299.179 730.954 298.807C731.304 298.597 733.177 297.687 735.105 296.773C735.359 296.673 759.569 287.045 765.685 283.679C771.801 280.314 781.852 275.683 782.525 272.788C783.198 269.894 786.383 263.907 789.752 263.243C790.883 263.095 792.009 262.875 793.126 262.585L798.643 261.651L793.569 270.239C792.855 272.262 791.995 274.222 790.996 276.097C789.936 278.119 788.875 280.082 787.814 281.985C787.592 282.701 784.499 289.219 784.274 290.146C784.274 290.146 782.265 293.543 781.411 295.325C780.556 297.107 775.774 308.523 774.785 311.82C773.72 315.501 772.972 319.272 772.551 323.077L773.725 325.12C774.708 325.429 775.735 325.564 776.772 325.52C778.401 325.571 780.279 325.55 782.42 325.462L788.839 325.199C793.563 324.464 798.243 323.22 802.815 321.484C809.609 320.141 815.883 310.538 816.523 309.232C817.035 308.129 817.675 307.104 818.425 306.187C819.07 305.001 825.443 292.643 825.443 292.643C826.44 291.496 827.384 290.291 828.271 289.035C829.258 287.518 830.018 285.835 830.519 284.058C830.323 283.594 839.364 268.288 839.894 267.45C840.424 266.613 841.103 265.599 841.944 264.398C842.378 263.451 842.75 262.568 843.074 261.735C843.398 260.901 848.82 250.508 849.141 249.797C849.474 249.061 849.845 248.347 850.253 247.659C850.908 246.011 851.329 245.17 851.534 245.162C851.738 245.154 852.161 244.787 852.78 244.064C852.78 244.064 864.048 240.696 864.462 240.444C864.668 240.435 881.458 235.851 881.665 235.729C881.859 235.609 882.073 235.541 882.288 235.531C885.163 234.486 888.139 233.374 891.218 232.196C894.297 231.027 902.28 229.011 902.896 228.752C903.575 228.373 904.31 228.161 905.048 228.131C905.787 228.1 906.513 228.252 907.177 228.577C907.299 232.061 907.324 235.548 907.253 239.038L907.013 249.865C906.998 259.404 906.938 268.943 906.832 278.483C906.726 288.023 906.982 297.2 907.598 306.014L908.664 312.948C908.809 314.852 908.818 316.777 908.689 318.702C908.559 319.75 908.536 320.805 908.619 321.845C908.727 322.728 909.023 323.554 909.482 324.252C910.313 325.44 911.262 326.513 912.312 327.45C912.312 327.45 921.268 330.932 923.723 323.027C926.178 315.123 929.747 291.036 931.674 279.322C933.601 267.609 935.568 228.852 935.597 227.569C935.762 225.864 936.007 224.165 936.328 222.479C936.334 222.233 936.392 221.988 936.497 221.765C936.603 221.525 937.71 219.799 937.92 219.443C938.13 219.088 939.493 217.457 939.493 217.457C939.493 217.457 951.765 212.363 952.282 212.216C952.799 212.07 954.068 211.907 954.275 211.788C954.481 211.669 957.862 212.459 957.992 212.373C958.012 212.478 958.012 212.608 958.072 212.674C958.177 212.816 958.228 213.002 958.213 213.194L958.171 215.115C958.27 216.007 958.459 216.877 958.732 217.708C960.317 221.444 962.125 225.04 964.143 228.472C965.983 231.829 968.944 234.151 972.395 234.942L974.534 234.854C976.48 234.802 978.427 234.545 980.353 234.089C982.027 233.66 983.675 233.068 985.276 232.318C986.921 231.544 999.673 230.331 999.673 230.331C999.869 230.794 1033.1 223.957 1033.71 223.698C1034.21 223.472 1034.73 223.334 1035.25 223.286C1036.14 222.97 1037.06 222.881 1037.96 223.025C1038.85 223.17 1039.69 223.544 1040.42 224.12C1040.95 224.36 1041.52 224.455 1042.1 224.4C1042.81 224.371 1043.16 224.592 1043.15 225.064C1043.35 225.528 1043.07 226.232 1042.34 227.189C1041.61 228.143 1040.71 228.899 1039.7 229.393L1035.35 232.712C1034.87 233.115 1034.35 233.43 1033.8 233.646C1033.38 233.787 1032.96 233.979 1032.56 234.217C1031.94 234.714 1031.32 235.205 1030.7 235.69C1030.07 236.187 1028.94 237.042 1027.28 238.277C1027.28 238.277 1016.02 245.836 1016.43 246.046L1009.92 250.152C1008.52 251.482 1007.01 252.651 1005.42 253.637C1003.66 254.759 1001.95 255.935 1000.3 257.165L982.297 270.463C981.472 270.838 980.689 271.34 979.972 271.954C979.451 272.447 978.931 272.929 978.411 273.412C977.782 273.984 977.107 274.481 976.395 274.895C975.3 275.518 974.165 276.031 973.002 276.428L968.04 279.772L965.25 281.631L949.291 292.232C948.164 293.099 947.242 294.28 946.62 295.654C946.408 295.898 946.357 296.075 946.455 296.186C946.554 296.298 946.502 296.477 946.291 296.716C946.055 296.994 945.841 297.295 945.652 297.615C945.373 298.343 945.25 299.128 945.294 299.9L946.754 302.978C947.156 303.677 947.497 304.422 947.772 305.204C948.004 305.905 948.353 306.542 948.801 307.081C950.73 308.559 952.438 310.37 953.871 312.455C953.871 312.455 959.836 317.288 960.329 317.305C962.727 318.315 965.207 319.088 967.743 319.617C968.507 319.686 969.277 319.694 970.049 319.64C973.563 319.371 992.714 307.751 1009.93 296.894L1010.1 296.887C1012.93 295.254 1015.7 293.463 1018.39 291.52C1019.88 290.572 1033.02 282.337 1033.02 282.337L1035.34 280.591C1037.58 279.134 1038.9 278.262 1038.9 278.262C1040.6 277.464 1042.26 276.521 1043.85 275.442C1045.74 274.2 1047.7 273.127 1049.72 272.235C1049.72 272.235 1061.95 264.928 1064.11 263.793C1066.28 262.657 1068.49 261.343 1070.76 259.856C1071.54 259.268 1072.37 258.766 1073.24 258.358C1075.66 256.485 1078 254.466 1080.24 252.313C1081.06 251.58 1081.84 250.789 1082.58 249.947C1083.79 248.668 1084.85 247.217 1085.73 245.633C1086.82 244.324 1087.59 242.724 1087.97 241.005C1087.97 241.005 1091.63 222.888 1091.47 221.15C1091.38 219.593 1090.75 218.178 1089.72 217.214C1089.54 216.297 1082.79 201.467 1079.75 198.782C1077.49 197.257 1075.12 195.954 1072.66 194.887C1067.72 193.521 1062.69 192.504 1057.61 191.842C1055.57 191.814 1053.23 191.853 1050.59 191.958C1043.96 192.182 1037.32 192.804 1030.7 193.822C1028.62 194.459 1026.52 194.953 1024.41 195.302C1021.85 195.756 1019.2 196.213 1016.44 196.674C1013.68 197.135 1010.98 197.482 1008.32 197.715C1006.18 197.939 1004.03 197.969 1001.91 197.804C1001.5 197.823 1001.09 197.781 1000.69 197.68C1000.39 197.596 1000.09 197.55 999.776 197.541L999.157 197.566C997.777 195.531 997.497 194.38 998.317 194.114L998.945 193.737C999.151 193.728 999.575 193.239 1000.2 192.292C1001.24 191.089 1002.28 189.946 1003.33 188.863C1004.6 187.578 1005.95 186.412 1007.38 185.379C1010.71 181.751 1022.31 172.553 1022.31 172.553C1023.45 172.092 1024.54 171.46 1025.56 170.675C1026.62 169.811 1027.62 168.834 1028.52 167.76L1030.39 166.29C1033.29 163.612 1036.92 160.555 1041.28 157.119C1045.63 153.684 1049.36 150.858 1052.46 148.644C1052.46 148.644 1058.23 145.035 1061.12 143.75C1063.62 142.602 1066.2 141.68 1068.81 140.993C1068.64 141.321 1068.53 141.681 1068.48 142.051C1068.49 142.099 1068.48 142.147 1068.47 142.193C1068.45 142.239 1068.43 142.281 1068.4 142.316C1068.37 142.351 1068.33 142.378 1068.29 142.395C1068.25 142.412 1068.21 142.418 1068.17 142.413L1067.86 142.775C1067.38 143.385 1067.04 144.123 1066.89 144.911C1066.02 146.811 1063.64 153.887 1062.99 155.534C1062.34 157.216 1062.19 159.066 1062.57 160.785C1062.73 162.644 1062.89 164.846 1063.04 167.392C1063.54 170 1064.64 172.364 1066.25 174.239C1066.25 174.239 1075 178.648 1076.23 178.364C1077.35 178.057 1078.48 177.895 1079.6 177.881C1080.97 177.669 1082.31 177.262 1083.6 176.668L1086.69 175.145C1087.32 174.648 1092.71 169.492 1092.93 169.132C1093.14 168.761 1093.26 168.33 1093.26 167.897C1093.26 167.897 1095.6 158.965 1095.6 158.731L1100.12 134.122C1100.59 132.388 1101.13 130.677 1101.75 128.995C1102.42 127.134 1102.78 125.165 1102.8 123.195C1102.72 122.253 1102.84 121.289 1103.17 120.389C1103.19 119.745 1103.26 119.101 1103.36 118.462C1102.07 115.371 1100.49 112.456 1098.67 109.759C1098.41 109.582 1098.16 109.372 1097.94 109.134V109.134ZM563.767 155.513L565.082 151.272C565.514 150.095 566.002 148.739 566.547 147.204C567.091 145.67 567.694 143.725 568.356 141.37C568.159 140.907 568.016 140.573 567.918 140.344C567.637 139.929 567.282 139.588 566.876 139.34C566.768 139.203 566.687 139.04 566.638 138.862C566.589 138.683 566.573 138.493 566.591 138.303L566.622 136.908L569.106 135.059C569.736 134.562 594.376 124.607 594.376 124.607C594.582 124.598 597.352 123.435 597.761 123.419C598.17 123.402 612.245 119.626 617.263 118.609C622.395 117.574 627.563 116.953 632.727 116.752C634.615 116.679 636.499 116.716 638.372 116.864C640.301 117.021 642.078 117.184 643.703 117.353C641.748 119.81 639.602 122.061 637.294 124.073C634.694 126.393 631.938 129.006 629.028 131.912C628.398 132.41 627.319 133.324 625.761 134.663C624.543 135.647 623.439 136.807 622.478 138.113C613.797 144.051 604.861 150.059 595.668 156.138C586.475 162.216 577.23 168.352 567.932 174.547L559.547 180.474C557.276 181.734 555.212 182.982 553.357 184.22C551.501 185.458 549.438 186.705 547.166 187.961C551.506 176.463 557.086 165.558 563.769 155.513L563.767 155.513ZM614.89 259.998C614.093 261.006 613.447 262.154 612.983 263.391C612.437 264.693 611.797 265.945 611.069 267.134C610.465 267.876 609.718 268.445 608.895 268.791L604.844 272.451L595.864 278.052C583.668 285.542 571.075 292.064 558.179 297.57C545.231 303.105 532.083 308.472 518.737 313.671C510.112 317.051 501.436 320.431 492.711 323.81C483.985 327.19 475.294 331.034 466.637 335.343C466.446 334.643 466.406 334.303 466.508 334.299C466.609 334.295 466.87 334.048 467.287 333.56L468.841 332.449C469.46 332.424 469.563 332.183 469.162 331.728L469.782 331.703C469.782 331.703 480.78 322.179 481.002 321.472L483.928 313.336L498.861 287.261C499.073 287.017 504.678 279.579 505.618 278.609C506.558 277.639 512.721 272.619 515.486 267.387C516.548 265.25 517.888 262.229 519.504 258.323C520.867 255.21 521.914 251.946 522.62 248.599C524.32 245.279 525.76 242.371 526.94 239.876C528.121 237.38 529.249 234.717 530.324 231.886C534.386 232.191 538.502 232.486 542.672 232.772C546.841 233.058 550.853 233.475 554.706 234.024L571.137 236.489C572.575 236.544 574 236.722 575.402 237.021C576.017 237.231 585.754 238.34 585.754 238.34C587.4 238.75 589.019 239.267 590.603 239.887C592.864 240.896 595.189 241.732 597.563 242.39C599.336 242.83 601.06 243.46 602.712 244.272C603.48 244.153 604.24 244.375 604.834 244.892C607.138 246.819 609.546 248.584 612.048 250.176C612.53 250.369 612.964 250.678 613.323 251.084C613.683 251.489 613.959 251.982 614.133 252.53C614.714 253.285 615.256 254.078 615.758 254.906C615.869 255.235 615.913 255.592 615.887 255.952L615.841 258.045C616.042 258.27 615.723 258.917 614.888 259.998L614.89 259.998ZM895.642 226.297L895.536 226.417L895.65 225.941L895.642 226.297ZM910.126 172.143C909.753 174.408 909.549 176.694 909.517 178.974C909.208 183.639 909.008 188.127 908.915 192.437C908.819 196.694 908.518 200.957 908.013 205.205C901.911 207.927 895.69 210.223 889.386 212.079C883.337 213.843 877.24 215.665 871.095 217.546C871.586 216.583 872.169 215.681 872.832 214.858C873.353 214.259 878.073 205.747 878.073 205.747L882.468 200.331C883.119 198.91 889.103 190.288 889.103 190.288C889.868 189.216 890.557 188.079 891.166 186.889C891.695 185.822 894.063 182.29 894.495 181.344L901.115 172.002C902.794 169.613 904.637 166.796 906.648 163.575C908.658 160.354 909.651 158.972 909.64 159.444C910.254 159.655 910.539 160.048 910.526 160.629L910.491 162.198C910.52 165.511 910.397 168.834 910.124 172.153L910.126 172.143Z" stroke="#00BCE7" stroke-width="10"/>
</svg>
