<svg width="42" height="44" viewBox="0 0 42 44" fill="none" xmlns="http://www.w3.org/2000/svg">
<path d="M8.82375 27.7715C8.82375 30.3008 6.84 32.3672 4.41188 32.3672C1.98375 32.3672 0 30.3008 0 27.7715C0 25.2422 1.98375 23.1758 4.41188 23.1758H8.82375V27.7715ZM11.0475 27.7715C11.0475 25.2422 13.0312 23.1758 15.4594 23.1758C17.8875 23.1758 19.8713 25.2422 19.8713 27.7715V39.2793C19.8713 41.8086 17.8875 43.875 15.4594 43.875C13.0312 43.875 11.0475 41.8086 11.0475 39.2793V27.7715ZM15.4594 9.31641C13.0312 9.31641 11.0475 7.25 11.0475 4.7207C11.0475 2.19141 13.0312 0.125 15.4594 0.125C17.8875 0.125 19.8713 2.19141 19.8713 4.7207V9.31641H15.4594ZM15.4594 11.6328C17.8875 11.6328 19.8713 13.6992 19.8713 16.2285C19.8713 18.7578 17.8875 20.8242 15.4594 20.8242H4.41188C1.98375 20.8242 0 18.7578 0 16.2285C0 13.6992 1.98375 11.6328 4.41188 11.6328H15.4594ZM33.1763 16.2285C33.1763 13.6992 35.16 11.6328 37.5881 11.6328C40.0163 11.6328 42 13.6992 42 16.2285C42 18.7578 40.0163 20.8242 37.5881 20.8242H33.1763V16.2285ZM30.9525 16.2285C30.9525 18.7578 28.9688 20.8242 26.5406 20.8242C24.1125 20.8242 22.1287 18.7578 22.1287 16.2285V4.7207C22.1287 2.19141 24.1125 0.125 26.5406 0.125C28.9688 0.125 30.9525 2.19141 30.9525 4.7207V16.2285ZM26.5406 34.6836C28.9688 34.6836 30.9525 36.75 30.9525 39.2793C30.9525 41.8086 28.9688 43.875 26.5406 43.875C24.1125 43.875 22.1287 41.8086 22.1287 39.2793V34.6836H26.5406ZM26.5406 32.3672C24.1125 32.3672 22.1287 30.3008 22.1287 27.7715C22.1287 25.2422 24.1125 23.1758 26.5406 23.1758H37.5881C40.0163 23.1758 42 25.2422 42 27.7715C42 30.3008 40.0163 32.3672 37.5881 32.3672H26.5406Z" fill="white"/>
</svg>
